<?xml version="1.0" encoding="UTF-8" standalone="no"?>
<!-- Created with Inkscape (http://www.inkscape.org/) -->

<svg
   width="128"
   height="128"
   viewBox="0 0 33.866666 33.866667"
   version="1.1"
   id="svg5"
   inkscape:version="1.2.2 (b0a8486541, 2022-12-01)"
   sodipodi:docname="favicon.svg"
   xmlns:inkscape="http://www.inkscape.org/namespaces/inkscape"
   xmlns:sodipodi="http://sodipodi.sourceforge.net/DTD/sodipodi-0.dtd"
   xmlns="http://www.w3.org/2000/svg"
   xmlns:svg="http://www.w3.org/2000/svg">
  <sodipodi:namedview
     id="namedview7"
     pagecolor="#505050"
     bordercolor="#eeeeee"
     borderopacity="1"
     inkscape:showpageshadow="0"
     inkscape:pageopacity="0"
     inkscape:pagecheckerboard="0"
     inkscape:deskcolor="#505050"
     inkscape:document-units="mm"
     showgrid="false"
     inkscape:zoom="4.28195"
     inkscape:cx="20.901692"
     inkscape:cy="93.532152"
     inkscape:window-width="1920"
     inkscape:window-height="1042"
     inkscape:window-x="0"
     inkscape:window-y="19"
     inkscape:window-maximized="1"
     inkscape:current-layer="layer1" />
  <defs
     id="defs2" />
  <g
     inkscape:label="Layer 1"
     inkscape:groupmode="layer"
     id="layer1">
    <ellipse
       style="fill:none;stroke-width:0.26090279;stroke-dasharray:none;paint-order:normal"
       id="path163"
       cx="14.072159"
       cy="14.215554"
       rx="11.869453"
       ry="11.315995" />
    <path
       id="path167"
       style="fill:none;stroke:#ffbf00;stroke-width:7;stroke-dasharray:none;stroke-opacity:1;stroke-linejoin:bevel;stroke-linecap:round;paint-order:normal"
       d="M 29.176922 14.816562 A 12.425224 12.425223 0 0 1 29.358557 16.933332 L 29.358557 16.933332 A 12.425224 12.425223 0 0 1 29.176734 19.051192 " />
    <path
       id="path4323"
       style="fill:none;stroke:#ffbf00;stroke-width:7;stroke-dasharray:none;stroke-opacity:1;stroke-linejoin:bevel;stroke-linecap:round;paint-order:normal"
       d="M 6.7784073 9.7734661 A 12.425224 12.425223 0 0 1 9.7734651 6.7784084 " />
    <path
       id="path4321"
       style="fill:none;stroke:#ffbf00;stroke-width:7;stroke-dasharray:none;stroke-opacity:1;stroke-linejoin:bevel;stroke-linecap:round;paint-order:normal"
       d="M 4.6899314 14.815473 A 12.425224 12.425223 0 0 1 6.7784073 9.7734661 " />
    <path
       id="path4319"
       style="fill:none;stroke:#ffbf00;stroke-width:7;stroke-dasharray:none;stroke-opacity:1;stroke-linejoin:bevel;stroke-linecap:round;paint-order:normal"
       d="M 4.6899314 19.051192 A 12.425224 12.425223 0 0 1 4.5081081 16.933332 A 12.425224 12.425223 0 0 1 4.6899314 14.815473 " />
    <path
       id="path4317"
       style="fill:none;stroke:#ffbf00;stroke-width:7;stroke-dasharray:none;stroke-opacity:1;stroke-linejoin:bevel;stroke-linecap:round;paint-order:normal"
       d="M 6.7784076 24.093199 A 12.425224 12.425223 0 0 1 4.6899314 19.051192 " />
    <path
       id="path4315"
       style="fill:none;stroke:#ffbf00;stroke-width:7;stroke-dasharray:none;stroke-opacity:1;stroke-linejoin:bevel;stroke-linecap:round;paint-order:normal"
       d="M 9.7734655 27.088257 A 12.425224 12.425223 0 0 1 6.7784076 24.093199 " />
    <path
       id="path4313"
       style="fill:none;stroke:#ffbf00;stroke-width:7;stroke-dasharray:none;stroke-opacity:1;stroke-linejoin:bevel;stroke-linecap:round;paint-order:normal"
       d="M 14.815473 29.176733 A 12.425224 12.425223 0 0 1 9.7734655 27.088257 " />
    <path
       id="path4311"
       style="fill:none;stroke:#ffbf00;stroke-width:7;stroke-dasharray:none;stroke-opacity:1;stroke-linejoin:bevel;stroke-linecap:round;paint-order:normal"
       d="M 19.051192 29.176733 A 12.425224 12.425223 0 0 1 16.933332 29.358556 A 12.425224 12.425223 0 0 1 14.815473 29.176733 " />
    <path
       id="path4309"
       style="fill:none;stroke:#ffbf00;stroke-width:7;stroke-dasharray:none;stroke-opacity:1;stroke-linejoin:bevel;stroke-linecap:round;paint-order:normal"
       d="M 24.0932 27.088257 A 12.425224 12.425223 0 0 1 19.051192 29.176733 " />
    <path
       id="path4307"
       style="fill:none;stroke:#ffbf00;stroke-width:7;stroke-dasharray:none;stroke-opacity:1;stroke-linejoin:bevel;stroke-linecap:round;paint-order:normal"
       d="M 27.088258 24.093199 A 12.425224 12.425223 0 0 1 24.0932 27.088257 " />
    <path
       id="path4305"
       style="fill:none;stroke:#ffbf00;stroke-width:7;stroke-dasharray:none;stroke-opacity:1;stroke-linejoin:bevel;stroke-linecap:round;paint-order:normal"
       d="M 29.176734 19.051192 A 12.425224 12.425223 0 0 1 27.088258 24.093199 " />
  </g>
</svg>
